<svg xmlns="http://www.w3.org/2000/svg" version="1.1" viewBox="-5.0 -10.0 110.0 135.0">
 <path d="m46.75 94.531c-22.762 0-41.281-18.52-41.281-41.281 0-17.781 11.316-33.516 28.16-39.16 1.2266-0.41797 2.5547 0.25 2.9648 1.4766 0.41016 1.2266-0.25 2.5547-1.4766 2.9648-14.93 5-24.965 18.953-24.965 34.715 0 20.18 16.414 36.594 36.594 36.594 20.188 0 36.609-16.414 36.609-36.594 0-1.293 1.0508-2.3438 2.3438-2.3438s2.3438 1.0508 2.3438 2.3438c0 22.762-18.527 41.281-41.297 41.281zm0-29.938c-3.0469 0-5.8945-1.1836-8.0234-3.3359-2.1328-2.1133-3.3203-4.9648-3.3203-8.0078 0-3.0547 1.1836-5.9102 3.3359-8.0391 2.1367-2.1367 4.9844-3.3203 8.0078-3.3203 3.0352 0 5.8867 1.1836 8.0312 3.3281s3.3281 5 3.3281 8.0312c0 3.0234-1.1836 5.8711-3.3281 8.0156-2.1211 2.1406-4.9766 3.3281-8.0312 3.3281zm0-18.016c-1.7734 0-3.4414 0.69531-4.7031 1.9531-1.2617 1.25-1.9531 2.9219-1.9531 4.7188 0 1.7852 0.69141 3.4531 1.9453 4.6953 1.2578 1.2695 2.9258 1.9609 4.7109 1.9609 1.793 0 3.4688-0.69141 4.7109-1.9453 1.2695-1.2695 1.9609-2.9375 1.9609-4.7109 0-1.7812-0.69531-3.457-1.9531-4.7188-1.2617-1.2617-2.9375-1.9531-4.7188-1.9531z"/>
 <path d="m46.75 79.406c-14.422 0-26.156-11.734-26.156-26.156 0-7.0039 2.7266-13.574 7.6758-18.504 4.9453-4.9453 11.508-7.668 18.48-7.668 6.9844 0 13.555 2.7227 18.5 7.6719 4.9453 4.9453 7.6719 11.516 7.6719 18.5 0 6.9727-2.7227 13.539-7.6719 18.484-4.9258 4.9453-11.5 7.6719-18.5 7.6719zm0-47.641c-5.7227 0-11.109 2.2383-15.172 6.2969-4.0625 4.0469-6.2969 9.4375-6.2969 15.188 0 11.836 9.6328 21.469 21.469 21.469 5.7461 0 11.141-2.2344 15.184-6.2969 4.0625-4.0664 6.3008-9.4531 6.3008-15.172 0-5.7344-2.2383-11.125-6.2969-15.188-4.0625-4.0586-9.4531-6.2969-15.188-6.2969zm0 32.828c-3.0469 0-5.8945-1.1836-8.0234-3.3359-2.1328-2.1133-3.3203-4.9648-3.3203-8.0078 0-3.0547 1.1836-5.9102 3.3359-8.0391 2.1367-2.1367 4.9844-3.3203 8.0078-3.3203 3.0352 0 5.8867 1.1836 8.0312 3.3281s3.3281 5 3.3281 8.0312c0 3.0234-1.1797 5.8672-3.3242 8.0156-2.1289 2.1484-4.9844 3.3281-8.0352 3.3281zm0-18.016c-1.7734 0-3.4414 0.69531-4.7031 1.9531-1.2617 1.25-1.9531 2.9219-1.9531 4.7188 0 1.7852 0.69141 3.4531 1.9453 4.6953 1.2578 1.2695 2.9258 1.9609 4.7109 1.9609 1.793 0 3.4688-0.69141 4.7109-1.9453 0-0.003907 0.003906-0.003907 0.007812-0.007813 1.2617-1.2617 1.9531-2.9297 1.9531-4.7031 0-1.7812-0.69531-3.457-1.9531-4.7188-1.2617-1.2617-2.9375-1.9531-4.7188-1.9531z"/>
 <path d="m46.75 79.406c-1.293 0-2.3438-1.0508-2.3438-2.3438v-14.812c0-1.293 1.0508-2.3438 2.3438-2.3438s2.3438 1.0508 2.3438 2.3438v14.812c0 1.293-1.0508 2.3438-2.3438 2.3438z"/>
 <path d="m46.75 46.578c-1.293 0-2.3438-1.0508-2.3438-2.3438v-14.797c0-1.293 1.0508-2.3438 2.3438-2.3438s2.3438 1.0508 2.3438 2.3438v14.797c0 1.293-1.0508 2.3438-2.3438 2.3438z"/>
 <path d="m63.594 72.422c-0.60156 0-1.1992-0.23047-1.6562-0.6875l-10.469-10.469c-0.91406-0.91406-0.91406-2.3984 0-3.3125s2.3984-0.91406 3.3125 0l10.469 10.469c0.91406 0.91406 0.91406 2.3984 0 3.3125-0.45703 0.45703-1.0586 0.6875-1.6562 0.6875z"/>
 <path d="m40.391 49.219c-0.60156 0-1.1992-0.23047-1.6562-0.6875l-10.469-10.469c-0.91406-0.91406-0.91406-2.3984 0-3.3125s2.3984-0.91406 3.3125 0l10.469 10.469c0.91406 0.91406 0.91406 2.3984 0 3.3125-0.45703 0.45703-1.0586 0.6875-1.6562 0.6875z"/>
 <path d="m70.562 55.594h-14.797c-1.293 0-2.3438-1.0508-2.3438-2.3438s1.0508-2.3438 2.3438-2.3438h14.797c1.293 0 2.3438 1.0508 2.3438 2.3438s-1.0508 2.3438-2.3438 2.3438z"/>
 <path d="m37.75 55.594h-14.812c-1.293 0-2.3438-1.0508-2.3438-2.3438s1.0508-2.3438 2.3438-2.3438h14.812c1.293 0 2.3438 1.0508 2.3438 2.3438s-1.0508 2.3438-2.3438 2.3438z"/>
 <path d="m53.125 49.219c-0.60156 0-1.1992-0.23047-1.6562-0.6875-0.91406-0.91406-0.91406-2.3984 0-3.3125l10.469-10.469c0.91406-0.91406 2.3984-0.91406 3.3125 0s0.91406 2.3984 0 3.3125l-10.469 10.469c-0.45703 0.45703-1.0586 0.6875-1.6562 0.6875z"/>
 <path d="m29.922 72.422c-0.60156 0-1.1992-0.23047-1.6562-0.6875-0.91406-0.91406-0.91406-2.3984 0-3.3125l10.469-10.469c0.91406-0.91406 2.3984-0.91406 3.3125 0s0.91406 2.3984 0 3.3125l-10.469 10.469c-0.45703 0.45703-1.0586 0.6875-1.6562 0.6875z"/>
 <path d="m46.754 5.4688c-1.293 0-2.3438 1.0508-2.3438 2.3438v12.98c0 1.293 1.0508 2.3438 2.3438 2.3438 16.602 0 30.109 13.508 30.109 30.109 0 1.293 1.0508 2.3438 2.3438 2.3438h12.98c1.293 0 2.3438-1.0508 2.3438-2.3438 0-26.344-21.434-47.777-47.777-47.777z"/>
<text x="0.0" y="117.5" font-size="5.0" font-weight="bold" font-family="Arbeit Regular, Helvetica, Arial-Unicode, Arial, Sans-serif" </svg>