<svg xmlns="http://www.w3.org/2000/svg" version="1.1" viewBox="-5.0 -10.0 110.0 135.0">
 <path d="m49.559 75.062c2.0859 2.0898 5.4727 2.0898 7.5625 0l9.1055-9.1055c1.0117-1.0078 1.6875-2.3047 1.9336-3.7109 0.3125-2.2461 1.3125-4.3398 2.8672-5.9922l3.375-3.3203 0.57422 0.57422c0.29297 0.29297 0.6875 0.45703 1.1055 0.45703 0.41406 0 0.80859-0.16406 1.1016-0.45703l8.2031-8.2031c0.29297-0.29297 0.46094-0.69141 0.46094-1.1055v-36.387c0-0.63281-0.38281-1.2031-0.96484-1.4453-0.58594-0.23828-1.2578-0.10547-1.7031 0.33984l-26.398 26.398c-0.29297 0.29297-0.45703 0.69141-0.45703 1.1055 0 0.41406 0.16406 0.80859 0.45703 1.1016l0.16406 0.16406-0.90234 0.87109c-2.6328 2.6289-6.8984 2.6289-9.5312 0-5.2695-5.2578-13.797-5.2578-19.062 0l-4.5234 4.5234v-0.003906c-2.0898 2.0898-2.0898 5.4766 0 7.5664zm33.164-63.48v31.969l-6.6406 6.6406-0.5625-0.5625v-0.003906l-15.234-15.238h-0.003906l-0.17969-0.17969zm-33.469 29.648c-0.14062 1.5-0.59766 2.957-1.3438 4.2695-0.42969 0.75-0.17578 1.7031 0.57422 2.1367 0.74609 0.42969 1.6992 0.17578 2.1328-0.57422 0.98828-1.7461 1.582-3.6836 1.7461-5.6836 0.67969-0.074218 1.3477-0.21875 1.9961-0.43359 0.52344 1.8438 0.67188 3.7695 0.43359 5.6719-0.054688 0.41016 0.058593 0.82422 0.3125 1.1562 0.25 0.32812 0.625 0.54297 1.0352 0.59375 0.066406 0.011718 0.13672 0.015624 0.20312 0.015624 0.78516 0 1.4453-0.58203 1.5469-1.3594 0.3125-2.5352 0.0625-5.1055-0.72656-7.5352 0.37891-0.27734 0.73438-0.58203 1.0703-0.91016l0.92188-0.89062 13.035 13.039-3.3594 3.3086-0.007812 0.007813h-0.003907c-2.0117 2.1016-3.3203 4.7812-3.7383 7.6602-0.13672 0.77734-0.50781 1.4883-1.0664 2.0469l-5.6406 5.6406-19.211-19.211c4.6289-3.9062 6.1602-7.7344 6.5781-10.441v0.003907c1.0625 0.71875 2.2539 1.2266 3.5117 1.4883zm-12.273-5.707c2.0469-0.003907 4.0508 0.60156 5.7539 1.7422 0.16406 1.3945 0.10938 5.8281-5.7891 10.695l-8.3477-8.3438 1.0586-1.0586c1.9375-1.9492 4.5742-3.043 7.3242-3.0352zm-11.844 7.5547 1.2539-1.2539 29.773 29.777-1.2539 1.2539c-0.87891 0.83984-2.2617 0.83984-3.1445 0l-26.629-26.633c-0.87109-0.86719-0.87109-2.2773 0-3.1445z"/>
 <path d="m58.375 63.598c1.9688 0 3.7461-1.1875 4.5-3.0039 0.75391-1.8203 0.33594-3.918-1.0586-5.3086-1.3906-1.3945-3.4883-1.8086-5.3086-1.0547-1.8164 0.75391-3.0039 2.5273-3.0039 4.5 0.003906 2.6875 2.1797 4.8672 4.8711 4.8672zm0-6.6172v0.003906c0.70312 0 1.3398 0.42578 1.6094 1.0781 0.27344 0.64844 0.12109 1.4023-0.375 1.8984-0.5 0.5-1.25 0.64844-1.9023 0.37891-0.65234-0.26953-1.0781-0.90625-1.0781-1.6094 0-0.96484 0.78125-1.7461 1.7461-1.7461z"/>
 <path d="m86.477 90.625h-66.988l9.6797-9.6797 5.5391 5.5391h-0.003906c1.832 1.8281 4.7969 1.8281 6.6289 0l1.168-1.168c1.8242-1.832 1.8242-4.7969 0-6.6289l-18.551-18.547c-1.8516-1.7734-4.7734-1.7734-6.625 0l-1.168 1.168h-0.003906c-1.8242 1.8281-1.8242 4.793 0.003906 6.625l5.5352 5.5391-7.082 7.0781c-0.29297 0.29297-0.45703 0.69141-0.45703 1.1055v8.9688h-0.625c-0.86328 0-1.5625 0.69922-1.5625 1.5625s0.69922 1.5625 1.5625 1.5625h72.949-0.003906c0.86328 0 1.5625-0.69922 1.5625-1.5625s-0.69922-1.5625-1.5625-1.5625zm-68.113-27.109 1.168-1.168c0.29297-0.29297 0.69141-0.45703 1.1055-0.45703 0.41406 0 0.8125 0.16406 1.1016 0.45703l2.7422 2.7422-1.3555 1.3555v0.003907c-0.60938 0.60938-0.60938 1.5977 0 2.207 0.61328 0.61328 1.6016 0.61328 2.2109 0l1.3555-1.3555 3.0195 3.0195-1.3555 1.3555c-0.61328 0.60938-0.61328 1.5977 0 2.2109 0.60938 0.60938 1.5977 0.60938 2.207 0l1.3555-1.3555 3.0195 3.0195-1.3555 1.3555v-0.003906c-0.60938 0.60938-0.60938 1.6016 0 2.2109s1.5977 0.60938 2.207 0l1.3555-1.3555 3.1406 3.1406h0.003906c0.60938 0.60937 0.60938 1.5977 0 2.207l-1.168 1.168c-0.60938 0.60937-1.5977 0.60937-2.207 0l-18.547-18.547h-0.003907c-0.60938-0.61328-0.60938-1.5977 0-2.2109zm-1.0859 18.789 6.625-6.625 3.0547 3.0547-9.6797 9.6797z"/>
<text x="0.0" y="117.5" font-size="5.0" font-weight="bold" font-family="Arbeit Regular, Helvetica, Arial-Unicode, Arial, Sans-serif" fill="#000000">Created by Darwin Mulya</text><text x="0.0" y="122.5" font-size="5.0" font-weight="bold" font-family="Arbeit Regular, Helvetica, Arial-Unicode, Arial, Sans-serif" fill="#000000">from Noun Project</text></svg>